<?xml version="1.0" encoding="utf-8"?>
<!-- Generator: Adobe Illustrator 20.1.0, SVG Export Plug-In . SVG Version: 6.00 Build 0)  -->
<svg version="1.1" id="Capa_1" xmlns="http://www.w3.org/2000/svg" xmlns:xlink="http://www.w3.org/1999/xlink" x="0px" y="0px"
	 viewBox="0 0 197.5 29.7" style="enable-background:new 0 0 197.5 29.7;" xml:space="preserve">
<style type="text/css">
	.st0{fill:#FFFFFF;}
	.st1{fill:#EA0A0A;}
</style>
<g>
	<path class="st0" d="M28.9,29.1c0,0.1-0.1,0.2-0.2,0.2H15.8c-0.2,0-0.3-0.1-0.3-0.2s0.1-0.2,0.3-0.2h1.1c0.2,0,0.4-0.4,0.4-1.3V8
		c0-0.9-0.1-1.3-0.4-1.3h-1.1c-0.2,0-0.3,0-0.3-0.2s0.1-0.2,0.3-0.2h7.1c0.2,0,0.3,0,0.3,0.2c0,0.1-0.1,0.2-0.3,0.2h-1.6
		C21.1,6.7,21,7.2,21,8v20.7c0,0.2,0.1,0.2,0.2,0.2h1.6c1.9,0,3.4-0.9,4.4-2.8c0.8-1.3,1.1-2.9,1.1-4.6v-0.6c0-0.2,0.1-0.3,0.2-0.3
		s0.2,0.1,0.2,0.3L28.9,29.1L28.9,29.1z M13.6,29.1c0,0.1-0.1,0.2-0.2,0.2H0.6c-0.2,0-0.3-0.1-0.3-0.2s0.1-0.2,0.3-0.2h1.1
		c0.2,0,0.3-0.4,0.3-1.3V8c0-0.9-0.1-1.3-0.4-1.3h-1c-0.2,0-0.3,0-0.3-0.2s0.1-0.2,0.3-0.2h11.9c0.2,0,0.3,0,0.3,0.2v7.2
		c0,0.2-0.1,0.3-0.2,0.3c-0.1,0-0.2-0.1-0.2-0.3v-0.4c0-1.8-0.4-3.3-1.1-4.6c-0.9-1.4-1.9-2.1-3.4-2.1H6c-0.2,0-0.3,0-0.3,0.2v10
		c0,0.1,0.1,0.1,0.2,0.1h0.9c0.8,0,1.4-0.3,1.9-1.1c0.6-0.8,0.8-1.5,0.8-2.4v-0.3c0-0.2,0.1-0.3,0.2-0.3c0.1,0,0.2,0.1,0.2,0.3v8.1
		c0,0.2-0.1,0.3-0.2,0.3s-0.2-0.1-0.2-0.3V21c0-0.9-0.2-1.8-0.8-2.5c-0.6-0.8-1.1-1.1-1.9-1.1H6c-0.2,0-0.3,0-0.3,0.2v11.1
		c0,0.2,0.1,0.2,0.2,0.2h1.7c1.9,0,3.4-1,4.4-2.8c0.8-1.3,1.1-2.7,1.1-4.2v-0.4c0-0.2,0.1-0.2,0.2-0.2s0.2,0.1,0.2,0.2v7.6H13.6z"/>
	<path class="st0" d="M53,29.1c0,0.1-0.1,0.2-0.2,0.2H40c-0.2,0-0.3-0.1-0.3-0.2s0.1-0.2,0.3-0.2h1.1c0.2,0,0.4-0.4,0.4-1.3V8
		c0-0.9-0.1-1.3-0.4-1.3H40c-0.2,0-0.3,0-0.3-0.2s0.1-0.2,0.3-0.2h11.8c0.2,0,0.3,0,0.3,0.2v7.2c0,0.2-0.1,0.3-0.2,0.3
		c-0.2,0-0.2-0.1-0.2-0.3v-0.4c0-1.8-0.3-3.3-1.2-4.6c-0.8-1.4-1.9-2.2-3.3-2.2h-1.8c-0.2,0-0.3,0.1-0.3,0.2v9.9
		c0,0.1,0.1,0.2,0.2,0.2h0.9c0.8,0,1.3-0.3,1.9-1.1s0.8-1.6,0.8-2.4V13c0-0.2,0.1-0.3,0.2-0.3c0.2,0,0.2,0.1,0.2,0.3v8.1
		c0,0.2-0.1,0.3-0.2,0.3c-0.2,0-0.2-0.1-0.2-0.3v-0.2c0-1-0.3-1.8-0.8-2.5c-0.6-0.8-1.2-1.2-1.9-1.2h-0.9c-0.2,0-0.3,0-0.3,0.2v11
		c0,0.2,0.1,0.2,0.2,0.2h1.7c1.9,0,3.4-1,4.4-2.8c0.8-1.3,1.1-2.7,1.1-4.2v-0.4c0-0.2,0.1-0.2,0.2-0.2c0.2,0,0.2,0,0.2,0.2L53,29.1
		L53,29.1z"/>
	<path class="st0" d="M67.2,23.1c0,1.8-0.6,3.4-1.8,4.7c-1.2,1.3-2.8,1.9-4.7,1.9c-1.2,0-2.4-0.3-3.8-0.9c-0.4-0.2-0.8-0.3-0.9-0.3
		c-0.2,0-0.3,0.2-0.3,0.3V29c0,0.2-0.1,0.4-0.2,0.4c-0.1,0-0.2-0.1-0.2-0.4v-8.2c0-0.2,0.1-0.3,0.2-0.3c0.2,0,0.2,0.1,0.2,0.3v0.3
		c0,2,0.4,3.8,1.2,5.3c0.9,2,2.2,3,4,3c1.2,0,1.9-0.3,2.6-1c0.7-0.7,1-1.5,1-2.5c0-1.7-0.8-3.2-2.3-4.6c-1.4-1.2-2.9-2.4-4.3-3.6
		c-1.6-1.5-2.3-3.3-2.3-5.3c0-1.7,0.4-3.1,1.3-4.3C58,6.7,59.3,5.9,61,5.9c0.9,0,2,0.3,3.1,1c0.4,0.2,0.7,0.3,0.9,0.3
		s0.3-0.1,0.3-0.3V6.7c0-0.2,0.1-0.4,0.2-0.4c0.2,0,0.2,0.1,0.2,0.4v7.2c0,0.2-0.1,0.3-0.2,0.3s-0.2-0.1-0.2-0.3v-0.3
		c0-1.9-0.4-3.6-1.2-4.9c-0.9-1.5-1.9-2.2-3.3-2.2c-0.9,0-1.6,0.3-2,0.8C58.3,7.9,58,8.6,58,9.6c0,1.6,0.8,3.2,2.4,4.6
		c1.5,1.2,3,2.4,4.5,3.6C66.3,19.3,67.2,21.1,67.2,23.1z"/>
	<path class="st0" d="M76.6,19.3h-2.1c-0.2,0-0.3,0.1-0.3,0.2v8.2c0,0.9,0.1,1.3,0.3,1.3h1.7c0.2,0,0.3,0.1,0.3,0.2
		c0,0.2-0.1,0.2-0.3,0.2H69c-0.2,0-0.3,0-0.3-0.2c0-0.1,0.1-0.2,0.3-0.2h1.1c0.2,0,0.3-0.4,0.3-1.3V8.1c0-0.9-0.1-1.3-0.3-1.3H69
		c-0.2,0-0.3-0.1-0.3-0.2s0.1-0.2,0.3-0.2h7.6v0.3c-0.1,0-0.2,0-0.3,0h-1.8c-0.2,0-0.3,0.1-0.3,0.2v11.8c0,0.2,0.1,0.2,0.3,0.2h1.8
		c0.1,0,0.2,0,0.3,0V19.3L76.6,19.3z M83,12.9c0-2.2-0.7-3.9-1.9-5c-1.1-1-2.4-1.4-4.2-1.4h-0.3v0.4c0.8,0,1.3,0.5,1.7,1.3
		c0.4,0.9,0.7,2.5,0.7,4.7s-0.2,3.8-0.6,4.8c-0.3,0.8-0.9,1.2-1.8,1.3v0.4h0.6c1.7,0,3.1-0.6,4.1-1.6C82.4,16.5,83,15,83,12.9z"/>
	<path class="st0" d="M97.9,29.1c0,0.1-0.1,0.2-0.2,0.2H84.8c-0.2,0-0.3-0.1-0.3-0.2s0.1-0.2,0.3-0.2h1.1c0.2,0,0.3-0.4,0.3-1.3V8
		c0-0.9-0.1-1.3-0.3-1.3h-1.1c-0.2,0-0.3,0-0.3-0.2s0.1-0.2,0.3-0.2h11.9c0.2,0,0.2,0,0.2,0.2v7.2c0,0.2-0.1,0.3-0.2,0.3
		c-0.2,0-0.2-0.1-0.2-0.3v-0.4c0-1.8-0.3-3.3-1.2-4.6c-0.8-1.4-1.9-2.1-3.3-2.1h-1.8c-0.2,0-0.2,0-0.2,0.2v10c0,0.1,0.1,0.1,0.2,0.1
		h0.9c0.8,0,1.3-0.3,1.9-1.1s0.8-1.5,0.8-2.4v-0.3c0-0.2,0.1-0.3,0.2-0.3c0.2,0,0.2,0.1,0.2,0.3v8.1c0,0.2-0.1,0.3-0.2,0.3
		s-0.2-0.1-0.2-0.3V21c0-0.9-0.3-1.8-0.8-2.5c-0.6-0.8-1.2-1.1-1.9-1.1h-0.9c-0.2,0-0.2,0-0.2,0.2v11.1c0,0.2,0.1,0.2,0.2,0.2h1.7
		c1.9,0,3.4-1,4.5-2.8c0.8-1.3,1.1-2.7,1.1-4.2v-0.4c0-0.2,0.1-0.2,0.2-0.2s0.2,0.1,0.2,0.2L97.9,29.1L97.9,29.1z"/>
	<path class="st0" d="M113.6,29c0,0.2-0.1,0.3-0.2,0.3s-0.2-0.1-0.2-0.3v-0.2c0-0.2-0.1-0.3-0.3-0.3c-0.2,0-0.5,0.1-1,0.2
		c-1.5,0.7-2.8,1-4.1,1c-2.6,0-4.7-1.3-6-3.9c-1.2-2.2-1.8-4.8-1.8-7.8c0-3.5,0.7-6.3,1.9-8.6c1.4-2.3,3.3-3.4,5.8-3.4
		c1.2,0,2.2,0.3,3.4,0.8c0.5,0.2,0.8,0.3,0.9,0.3s0.2-0.1,0.2-0.3V6.6c0-0.2,0-0.3,0.2-0.3s0.2,0.1,0.2,0.3v7.8
		c0,0.2-0.1,0.3-0.2,0.3c-0.2,0-0.2-0.1-0.2-0.3v-0.3c0-2.2-0.5-4.1-1.4-5.6c-0.9-1.4-1.9-2.1-3.1-2.1c-1.4,0-2.2,0.8-2.7,2.3
		c-0.2,0.8-0.4,2.2-0.5,4.5c-0.2,3.2-0.2,6.4,0,9.5c0.1,2.4,0.3,4,0.7,4.9c0.5,1.2,1.4,1.9,2.8,1.9c1.6,0,2.8-0.8,3.7-2.3
		c1-1.6,1.4-3.5,1.4-5.8v-0.7c0-0.2,0.1-0.3,0.2-0.3c0.2,0,0.2,0.1,0.2,0.3L113.6,29L113.6,29z"/>
	<path class="st0" d="M130.7,14.4c0,0.2-0.1,0.2-0.2,0.2c-0.1,0-0.2-0.1-0.2-0.2v-0.7c0-1.9-0.3-3.4-1.1-4.8
		c-0.9-1.4-1.9-2.1-3.2-2.1h-1c-0.2,0-0.3,0-0.3,0.2v20.7c0,0.9,0.1,1.3,0.3,1.3h1.2c0.2,0,0.3,0.1,0.3,0.2c0,0.2-0.1,0.2-0.3,0.2
		h-6.7c-0.2,0-0.2,0-0.2-0.2c0-0.1,0.1-0.2,0.2-0.2h1.2c0.2,0,0.3-0.4,0.3-1.3V7c0-0.2-0.1-0.2-0.3-0.2h-1c-1.3,0-2.4,0.8-3.2,2.1
		c-0.8,1.3-1.1,2.9-1.1,4.8v0.7c0,0.2-0.1,0.2-0.2,0.2c-0.2,0-0.2-0.1-0.2-0.2V6.7c0-0.1,0.1-0.2,0.2-0.2h15.2
		c0.2,0,0.3,0.1,0.3,0.2L130.7,14.4L130.7,14.4z"/>
	<path class="st0" d="M135.6,20.8h-2.2c-0.1,0-0.2,0.1-0.2,0.2l-0.4,2.1c-0.3,1.3-0.4,2.4-0.4,3.4c0,1.8,0.6,2.6,1.6,2.6h0.5
		c0.2,0,0.2,0.1,0.2,0.2s-0.1,0.2-0.2,0.2h-5.1c-0.2,0-0.3-0.1-0.3-0.2s0.1-0.2,0.3-0.2h0.1c0.5,0,0.9-0.3,1.2-1.1
		c0.5-0.9,1-2.7,1.6-5.2l3.4-14.9v2.4V10h-0.1l-2.2,10.1c0,0.2,0.1,0.2,0.2,0.2h2.1v0.5H135.6z M145.4,29.2c0-0.1-0.1-0.2-0.3-0.2
		h-0.5c-0.3,0-0.6-0.5-0.9-1.4l-5.4-21.1c-0.1-0.1-0.2-0.2-0.3-0.2h-1.9c-0.2,0-0.3,0.1-0.3,0.2l-0.3,1.4v2.5l2.3,9.7
		c0.1,0.2,0,0.3-0.2,0.3h-2.1v0.4h2.3c0.2,0,0.2,0.1,0.2,0.2l1.6,6.6c0.1,0.5,0.1,0.8,0.1,1.1c0,0.3-0.1,0.4-0.4,0.4h-0.8
		c-0.2,0-0.3,0.1-0.3,0.2s0.1,0.2,0.3,0.2h6.6C145.3,29.4,145.4,29.3,145.4,29.2z"/>
	<path class="st0" d="M154.7,29.3c-0.1,0-0.3,0-0.4,0h-7.8c-0.2,0-0.3-0.1-0.3-0.2s0.1-0.2,0.3-0.2h1.1c0.2,0,0.3-0.4,0.3-1.3V8
		c0-0.9-0.1-1.3-0.3-1.3h-1.1c-0.2,0-0.3,0-0.3-0.2s0.1-0.2,0.3-0.2h7.7c0.2,0,0.3,0,0.5,0v0.4c-0.2,0-0.4-0.1-0.6-0.1h-2.2
		c-0.2,0-0.3,0.1-0.3,0.2v21.8c0,0.2,0.1,0.2,0.2,0.2h2.2c0.1,0,0.3,0,0.4,0L154.7,29.3L154.7,29.3z M162.1,17.7c0-3.2-0.7-5.8-2-8
		c-1.4-2.1-3.2-3.2-5.4-3.3v0.5c1,0.1,1.8,0.8,2.1,1.9c0.3,0.9,0.6,2.3,0.6,4.3c0.2,3.1,0.2,6.1,0,9.2c-0.1,2.2-0.3,3.7-0.6,4.5
		c-0.5,1.2-1.2,1.9-2.2,2v0.5c2.3-0.2,4.2-1.2,5.5-3.4C161.5,23.9,162.1,21.1,162.1,17.7z"/>
	<rect class="st1" width="197.5" height="3.8"/>
	<path class="st0" d="M171.7,29.7c-2.4,0-4.4-1.2-5.8-3.5c-1.4-2.2-2-5-2-8.2c0-3.4,0.6-6.1,1.9-8.3c1.3-2.3,3.3-3.5,5.8-3.5v0.3
		c-1.4,0-2.3,0.8-2.8,2.4c-0.2,0.6-0.3,2.1-0.5,4.4c-0.1,3.2-0.1,6.3,0,9.5c0.1,2,0.3,3.4,0.6,4.3c0.5,1.6,1.4,2.4,2.7,2.4l0,0
		L171.7,29.7L171.7,29.7z M179.6,17.7c0-3.3-0.7-6-2-8.2c-1.5-2.3-3.5-3.5-5.9-3.5v0.3h0.1c1.2,0,2.1,0.8,2.6,2.3
		c0.2,0.9,0.4,2.2,0.6,4.3c0.1,3.2,0.1,6.3,0,9.6c-0.1,2.3-0.2,3.8-0.4,4.4c-0.4,1.6-1.4,2.3-2.8,2.4v0.3c2.6,0,4.6-1.2,5.9-3.6
		C178.9,23.9,179.6,21.2,179.6,17.7z"/>
	<path class="st0" d="M189.1,17.3c-0.1,0-0.2,0-0.2,0h-1.8c-0.2,0-0.3,0.1-0.3,0.2v9.9c0,0.9,0.1,1.3,0.4,1.3h1
		c0.2,0,0.3,0.1,0.3,0.2s-0.1,0.2-0.3,0.2h-6.5c-0.2,0-0.3-0.1-0.3-0.2s0.1-0.2,0.3-0.2h1.1c0.2,0,0.3-0.4,0.3-1.3V7.8
		c0-0.9-0.1-1.3-0.3-1.3h-1.1c-0.2,0-0.3-0.1-0.3-0.2c0-0.2,0.1-0.2,0.3-0.2h7.6v0.4c-0.1,0-0.1,0-0.1,0h-1.9c-0.2,0-0.3,0-0.3,0.2
		v9.9c0,0.2,0.1,0.2,0.3,0.2h1.9h0.1v0.5H189.1z M197.4,27.5c-0.1,0-0.3,0.1-0.3,0.2c-0.2,0.8-0.6,1.2-1.2,1.2
		c-0.5,0-0.8-0.6-0.8-1.7v-3.9c0-1.9-0.6-3.4-1.6-4.6c-0.9-0.9-2-1.5-3.4-1.7v-0.1c1.4-0.2,2.5-0.7,3.4-1.7c1-1,1.4-2.2,1.4-3.6
		c0-1.9-0.6-3.3-1.8-4.3c-1-0.9-2.3-1.2-3.9-1.2h-0.4v0.4c1.6,0.1,2.3,1.9,2.3,5.2c0,1.9-0.2,3.2-0.6,3.9c-0.4,0.8-1,1.2-1.8,1.2
		v0.3c1.6,0.2,2.2,1.3,2.3,3.7c0,0.7,0,1.4,0,2.2c0,1.2,0,1.9,0,2.3c0,1.2,0.3,2.1,1,2.8c0.7,0.8,1.6,1.2,2.8,1.2s2.1-0.6,2.4-1.7
		C197.6,27.6,197.5,27.5,197.4,27.5z"/>
</g>
</svg>
