<svg id="Grupo_6345" data-name="Grupo 6345" xmlns="http://www.w3.org/2000/svg" width="119.91" height="119.91" viewBox="0 0 119.91 119.91">
  <g id="Grupo_5587" data-name="Grupo 5587" transform="translate(0)">
    <rect id="Rectángulo_703" data-name="Rectángulo 703" width="119.91" height="119.91" rx="4.861" fill="#ea0a0a"/>
  </g>
  <path id="Trazado_2938" data-name="Trazado 2938" d="M1368.54,3351.753h-.927q-5.114,0-10.224,0c-1.753,0-2.377-.617-2.377-2.345q-.01-6.664,0-13.328c0-1.707.662-2.359,2.393-2.359h11.135v-9.669a23.67,23.67,0,0,1,3.061-12.369,18.514,18.514,0,0,1,10.018-8.155,25.281,25.281,0,0,1,8.583-1.391q5.52-.007,11.035.006c1.578,0,2.282.689,2.282,2.245q.009,6.268,0,12.534c0,1.577-.672,2.209-2.293,2.226-3.012.03-6.03.01-9.038.131-1.631.065-3.2.542-3.987,2.13a5.89,5.89,0,0,0-.657,2.406c-.069,3.26-.027,6.526-.027,9.906H1400.5c1.837,0,2.467.617,2.467,2.426q0,6.627-.006,13.258c0,1.778-.593,2.349-2.44,2.354H1387.48V3387.5c0,1.908-.614,2.516-2.536,2.516H1370.9c-1.695,0-2.357-.649-2.357-2.308v-35.959Z" transform="translate(-1319.858 -3286.777)" fill="#fff"/>
</svg>
