<svg id="Grupo_6346" data-name="Grupo 6346" xmlns="http://www.w3.org/2000/svg" width="119.911" height="119.91" viewBox="0 0 119.911 119.91">
  <g id="Grupo_5586" data-name="Grupo 5586" transform="translate(0)">
    <g id="Grupo_1691" data-name="Grupo 1691">
      <rect id="Rectángulo_701" data-name="Rectángulo 701" width="119.91" height="119.91" rx="4.861" fill="#ea0a0a"/>
    </g>
    <path id="Trazado_283" data-name="Trazado 283" d="M1483.926,3374.526c10.069,1.363,19.139-.812,27.322-7.37-8.292-1.176-13.769-5.988-16.605-14.655a18.67,18.67,0,0,0,7.083.076c-8.6-3.544-13.114-10.213-13.328-20.465a17.268,17.268,0,0,0,7.44,2.688,20.7,20.7,0,0,1-6.958-12.479,21.6,21.6,0,0,1,2.438-14.286c9.737,12.7,22.071,19.824,37.29,21.1-.083-.8-.16-1.48-.231-2.155-1.142-10.694,6-20.758,15.761-22.148a17.149,17.149,0,0,1,15.82,5.655.827.827,0,0,0,.922.273,34.347,34.347,0,0,0,10.682-4.565l.785-.5a20.292,20.292,0,0,1-6.988,11.1,40.7,40.7,0,0,0,9.729-3.014c-.786,1.156-1.546,2.331-2.361,3.462a38.519,38.519,0,0,1-6.7,7.11,1.381,1.381,0,0,0-.554,1.233c.149,19.6-7.006,35.457-20.857,47.7a44.39,44.39,0,0,1-21.874,10.188,49.174,49.174,0,0,1-26.252-2.071,50.149,50.149,0,0,1-12.175-6.553C1484.235,3374.786,1484.151,3374.713,1483.926,3374.526Z" transform="translate(-1469.886 -3284.868)" fill="#fff"/>
  </g>
</svg>
