<?xml version="1.0" encoding="utf-8"?>
<!-- Generator: Adobe Illustrator 20.1.0, SVG Export Plug-In . SVG Version: 6.00 Build 0)  -->
<svg version="1.1" id="Capa_1" xmlns="http://www.w3.org/2000/svg" xmlns:xlink="http://www.w3.org/1999/xlink" x="0px" y="0px"
	 viewBox="0 0 29 29.3" style="enable-background:new 0 0 29 29.3;" xml:space="preserve">
<style type="text/css">
	.st0{fill:#FFFFFF;}
</style>
<g>
	<path class="st0" d="M13.6,29.1c0,0.2-0.1,0.2-0.2,0.2H0.6c-0.2,0-0.3,0-0.3-0.2c0-0.1,0.1-0.2,0.3-0.2h1.1c0.2,0,0.3-0.4,0.3-1.3
		V8c0-0.9-0.1-1.3-0.4-1.3H0.5c-0.2,0-0.3,0-0.3-0.2s0.1-0.2,0.3-0.2h11.9c0.2,0,0.3,0,0.3,0.2v7.2c0,0.2-0.1,0.3-0.2,0.3
		s-0.2-0.1-0.2-0.3v-0.4c0-1.8-0.4-3.3-1.1-4.6c-0.9-1.4-1.9-2.1-3.4-2.1H6c-0.2,0-0.3,0-0.3,0.2v9.9c0,0.1,0.1,0.2,0.2,0.2h0.9
		c0.8,0,1.4-0.3,1.9-1.1c0.6-0.8,0.8-1.6,0.8-2.4v-0.3c0-0.2,0.1-0.3,0.2-0.3s0.2,0.1,0.2,0.3v8.1c0,0.2-0.1,0.3-0.2,0.3
		s-0.2-0.1-0.2-0.3V21c0-0.9-0.2-1.8-0.8-2.5c-0.6-0.8-1.1-1.1-1.9-1.1H5.9c-0.2,0-0.3,0-0.3,0.2v11.1c0,0.2,0.1,0.2,0.2,0.2h1.7
		c1.9,0,3.4-0.9,4.4-2.8c0.8-1.3,1.1-2.7,1.1-4.2v-0.4c0-0.2,0.1-0.2,0.2-0.2s0.2,0.1,0.2,0.2v7.6H13.6z"/>
	<path class="st0" d="M29,29.1c0,0.2-0.1,0.2-0.2,0.2H16c-0.2,0-0.3,0-0.3-0.2c0-0.1,0.1-0.2,0.3-0.2h1.1c0.2,0,0.4-0.4,0.4-1.3V8
		c0-0.9-0.1-1.3-0.4-1.3H16c-0.2,0-0.3,0-0.3-0.2s0.1-0.2,0.3-0.2h11.8c0.2,0,0.3,0,0.3,0.2v7.2c0,0.2-0.1,0.3-0.2,0.3
		c-0.2,0-0.2-0.1-0.2-0.3v-0.4c0-1.8-0.3-3.3-1.2-4.6c-0.8-1.4-1.9-2.2-3.3-2.2h-1.8c-0.2,0-0.3,0.1-0.3,0.2v9.9
		c0,0.1,0.1,0.2,0.2,0.2h0.9c0.8,0,1.3-0.3,1.9-1.1s0.8-1.6,0.8-2.4V13c0-0.2,0.1-0.3,0.2-0.3c0.2,0,0.2,0.1,0.2,0.3v8.1
		c0,0.2-0.1,0.3-0.2,0.3c-0.2,0-0.2-0.1-0.2-0.3v-0.2c0-1-0.3-1.8-0.8-2.5c-0.6-0.8-1.2-1.2-1.9-1.2h-0.9c-0.2,0-0.3,0-0.3,0.2v11
		c0,0.2,0.1,0.2,0.2,0.2h1.7c1.9,0,3.4-1,4.4-2.8c0.8-1.3,1.1-2.7,1.1-4.2v-0.4c0-0.2,0.1-0.2,0.2-0.2c0.2,0,0.2,0.1,0.2,0.2
		L29,29.1L29,29.1z"/>
	<rect class="st0" width="28.9" height="3.8"/>
</g>
</svg>
